<svg width="20" height="20" viewBox="0 0 20 20" fill="none" xmlns="http://www.w3.org/2000/svg">
<path d="M10 5C8.76387 5 7.5555 5.36656 6.52769 6.05331C5.49988 6.74007 4.6988 7.71619 4.22576 8.85823C3.75271 10.0003 3.62894 11.2569 3.87009 12.4693C4.11125 13.6817 4.70651 14.7953 5.58059 15.6694C6.45466 16.5435 7.56831 17.1388 8.78069 17.3799C9.99307 17.6211 11.2497 17.4973 12.3918 17.0242C13.5338 16.5512 14.5099 15.7501 15.1967 14.7223C15.8834 13.6945 16.25 12.4861 16.25 11.25C16.25 9.5924 15.5915 8.00268 14.4194 6.83058C13.2473 5.65848 11.6576 5 10 5ZM10 5V2.5M7.5 2.5H12.5" stroke="#0838C1" stroke-width="1.5" stroke-linecap="round" stroke-linejoin="round"/>
<path d="M10 8.33337V10.8334L11.6667 12.5" stroke="#0838C1" stroke-width="1.5" stroke-linecap="round" stroke-linejoin="round"/>
</svg>
