<svg width="100" height="100" viewBox="0 0 100 100" fill="none" xmlns="http://www.w3.org/2000/svg">
<mask id="mask0_2013_1383" style="mask-type:alpha" maskUnits="userSpaceOnUse" x="0" y="0" width="100" height="100">
<path d="M49.9991 26.0443C49.7754 23.6095 50.5485 21.1873 52.1484 19.3107C53.7483 17.434 56.044 16.2566 58.5304 16.0375C61.0168 15.8184 63.4903 16.5754 65.4066 18.1422C67.323 19.7089 68.5254 21.957 68.7491 24.3918C70.8732 24.8021 72.7846 25.9252 74.1537 27.5676C75.5228 29.21 76.2639 31.2687 76.2491 33.3887C76.2553 34.7523 75.9342 36.0982 75.3116 37.318C76.7587 38.3357 77.9382 39.6754 78.7532 41.2267C79.5681 42.7781 79.9952 44.4969 79.9991 46.2415C79.9826 48.9591 78.9409 51.5749 77.0741 53.5859C78.5186 55.1673 79.466 57.1235 79.8025 59.2194C80.139 61.3154 79.8503 63.4619 78.9711 65.401C78.0919 67.3402 76.6596 68.9895 74.8462 70.1507C73.0329 71.3119 70.9157 71.9357 68.7491 71.947C68.8672 72.5647 68.9299 73.1914 68.9366 73.8198C68.9366 76.2547 67.9489 78.5898 66.1908 80.3114C64.4326 82.0331 62.0481 83.0004 59.5616 83.0004C57.0752 83.0004 54.6907 82.0331 52.9325 80.3114C51.1744 78.5898 50.1866 76.2547 50.1866 73.8198L49.9991 26.0443ZM49.9991 26.0443C49.9571 23.7825 49.0639 21.6155 47.4906 19.959C45.9174 18.3025 43.7751 17.2732 41.4745 17.0684C39.1739 16.8636 36.8771 17.4977 35.0246 18.8493C33.1721 20.2008 31.8945 22.1745 31.4366 24.3918C29.2781 24.7639 27.3231 25.8707 25.9166 27.5167C24.5101 29.1628 23.7425 31.2424 23.7491 33.3887C23.743 34.7523 24.0641 36.0982 24.6866 37.318C23.2396 38.3357 22.0601 39.6754 21.2451 41.2267C20.4302 42.7781 20.0031 44.4969 19.9991 46.2415C20.0157 48.9591 21.0574 51.5749 22.9241 53.5859C21.4797 55.1673 20.5323 57.1235 20.1958 59.2194C19.8593 61.3154 20.148 63.4619 21.0272 65.401C21.9064 67.3402 23.3387 68.9895 25.1521 70.1507C26.9654 71.3119 29.0825 71.9357 31.2491 71.947C31.1937 72.5701 31.1937 73.1967 31.2491 73.8198C31.2491 76.2547 32.2369 78.5898 33.995 80.3114C35.7532 82.0331 38.1377 83.0004 40.6241 83.0004C43.1106 83.0004 45.4951 82.0331 47.2533 80.3114C49.0114 78.5898 49.9991 76.2547 49.9991 73.8198V26.0443Z" stroke="#0838C1" stroke-width="6" stroke-linecap="round" stroke-linejoin="round"/>
</mask>
<g mask="url(#mask0_2013_1383)">
<rect width="100" height="100" fill="#0838C1"/>
</g>
</svg>
