<svg width="512" height="512" viewBox="0 0 512 512" fill="none" xmlns="http://www.w3.org/2000/svg">
<g clip-path="url(#clip0_1651_2696)">
<path d="M420 0H92C41.1898 0 0 41.1898 0 92V420C0 470.81 41.1898 512 92 512H420C470.81 512 512 470.81 512 420V92C512 41.1898 470.81 0 420 0Z" fill="#0838C1"/>
<path d="M130.678 407.971C127.036 407.971 122.645 407.766 117.503 407.355C112.576 406.944 107.542 406.225 102.4 405.198V373.768C106.471 374.59 110.327 375.206 113.969 375.617C117.825 376.028 121.038 376.233 123.609 376.233C133.463 376.233 140.533 373.46 144.817 367.913C149.316 362.367 151.565 353.533 151.565 341.413V133.11H193.018V341.413C193.018 356.204 190.876 368.529 186.591 378.39C182.307 388.25 175.559 395.646 166.347 400.576C157.349 405.506 145.46 407.971 130.678 407.971Z" fill="#F3F6FB"/>
<path d="M320.589 353.431C302.38 353.431 285.564 351.274 270.139 346.96C254.929 342.44 241.861 336.277 230.936 328.471L243.79 297.349C251.073 302.279 258.678 306.49 266.605 309.983C274.531 313.27 282.993 315.837 291.99 317.686C300.988 319.33 310.521 320.151 320.589 320.151C337.513 320.151 349.724 317.481 357.222 312.14C364.72 306.799 368.469 299.814 368.469 291.186C368.469 283.585 365.898 277.833 360.757 273.93C355.615 269.822 346.404 266.432 333.122 263.762L296.81 256.674C276.03 252.566 260.499 245.684 250.216 236.029C239.933 226.374 234.792 213.432 234.792 197.203C234.792 183.645 238.541 171.833 246.039 161.767C253.537 151.701 264.034 143.895 277.53 138.348C291.026 132.802 306.772 130.029 324.767 130.029C340.834 130.029 355.723 132.288 369.433 136.808C383.143 141.122 394.605 147.387 403.816 155.604L390.963 185.186C381.751 177.79 371.682 172.347 360.757 168.854C349.831 165.157 337.62 163.308 324.124 163.308C308.914 163.308 297.025 166.184 288.456 171.936C280.101 177.482 275.923 185.186 275.923 195.046C275.923 202.647 278.494 208.707 283.636 213.227C288.991 217.746 297.989 221.238 310.628 223.703L346.618 230.482C368.041 234.591 383.893 241.37 394.176 250.82C404.459 260.064 409.6 272.595 409.6 288.413C409.6 301.355 405.959 312.756 398.675 322.616C391.391 332.272 381.108 339.872 367.826 345.419C354.544 350.76 338.799 353.431 320.589 353.431Z" fill="#F3F6FB"/>
</g>
<defs>
<clipPath id="clip0_1651_2696">
<rect width="512" height="512" fill="white"/>
</clipPath>
</defs>
</svg>
