<svg width="82" height="24" viewBox="0 0 82 24" fill="none" xmlns="http://www.w3.org/2000/svg">
<path fill-rule="evenodd" clip-rule="evenodd" d="M81.6222 0H45.9363V24H81.6222V0ZM57.2057 6.60822V17.0534C57.2057 17.0589 57.2058 17.0644 57.2059 17.0699C57.206 17.0755 57.2061 17.0811 57.2062 17.0867C57.2068 17.1088 57.2073 17.1306 57.2057 17.152C57.2007 17.2123 57.2169 17.2481 57.287 17.2382C57.3036 17.2366 57.3203 17.2371 57.337 17.2376C57.3415 17.2378 57.346 17.2379 57.3506 17.238C57.3544 17.2381 57.3582 17.2382 57.362 17.2382C57.6575 17.2382 57.9531 17.2383 58.2488 17.2385C58.8404 17.2387 59.4325 17.239 60.0245 17.2382C60.0346 17.2382 60.044 17.2383 60.0529 17.2383C60.0604 17.2384 60.0675 17.2385 60.0742 17.2386C60.1311 17.2393 60.1588 17.2396 60.172 17.2261C60.1845 17.2134 60.1839 17.1881 60.1829 17.1389C60.1825 17.1223 60.1821 17.103 60.1821 17.0805V6.623L60.1819 6.61171L60.1815 6.59836C60.181 6.58194 60.1804 6.56551 60.1821 6.54908C60.1883 6.48748 60.1671 6.45545 60.0995 6.46284C60.0862 6.46448 60.0724 6.46394 60.0584 6.46339C60.0513 6.46312 60.0441 6.46284 60.037 6.46284C59.7387 6.46284 59.4402 6.4627 59.1417 6.46257H59.1407C58.5435 6.46229 57.9462 6.46202 57.3495 6.46284C57.3318 6.46284 57.3163 6.46261 57.3026 6.46241C57.2535 6.46168 57.2287 6.46131 57.2165 6.47332C57.2041 6.48545 57.2045 6.51023 57.2052 6.56006C57.2054 6.57405 57.2057 6.59001 57.2057 6.60822ZM72.0301 6.4632H67.5886C66.1098 6.4632 64.631 6.4632 63.1535 6.46197C63.148 6.46197 63.1426 6.462 63.1372 6.46205C63.1314 6.4621 63.1256 6.46217 63.1199 6.46224C63.0978 6.46252 63.0759 6.46279 63.0534 6.46197C63.0034 6.4595 62.9859 6.48291 62.9897 6.5285C62.9905 6.54241 62.9902 6.55577 62.9899 6.56931C62.9898 6.57615 62.9897 6.58308 62.9897 6.5901V9.09113L62.9896 9.11706C62.9893 9.17075 62.9892 9.19719 63.0025 9.21008C63.0154 9.22259 63.041 9.22236 63.0914 9.22191C63.0966 9.22187 63.1021 9.22182 63.1079 9.22178C63.1136 9.22175 63.1197 9.22172 63.126 9.22172H65.9148C66.0057 9.22172 66.0507 9.22172 66.073 9.24392C66.0949 9.26569 66.0949 9.30881 66.0949 9.39421V17.1055C66.0949 17.1203 66.0947 17.1334 66.0945 17.1451C66.0939 17.1894 66.0935 17.2126 66.1051 17.2246C66.1177 17.2378 66.1447 17.2377 66.201 17.2374L66.2287 17.2373H68.9049C68.9888 17.2373 69.0303 17.2373 69.051 17.2168C69.0713 17.1966 69.0713 17.1566 69.0713 17.0772V9.36587C69.0713 9.34928 69.071 9.3346 69.0708 9.32161C69.0701 9.27395 69.0697 9.24882 69.0821 9.23603C69.0955 9.22216 69.1238 9.22237 69.1829 9.22279C69.1941 9.22287 69.2065 9.22295 69.2201 9.22295H72.0589C72.1815 9.22295 72.1815 9.22295 72.1827 9.10345V6.61474C72.1827 6.59765 72.1829 6.58246 72.1831 6.56896C72.1837 6.51475 72.1841 6.48783 72.1706 6.47467C72.1573 6.46171 72.1307 6.46208 72.0778 6.4628C72.0639 6.46299 72.048 6.4632 72.0301 6.4632Z" fill="currentColor"/>
<path d="M23.8296 10.6576C24.3357 9.73723 25.1445 9.29616 25.9294 9.27891C27.5219 9.27521 28.563 10.1586 28.8468 11.3832C29.0188 12.1212 28.9422 12.8383 28.5743 13.5085C28.141 14.2957 27.4653 14.7541 26.5561 14.8563C25.677 14.9561 24.9097 14.7109 24.283 14.0875C23.8811 13.6884 23.6387 13.2017 23.5358 12.6522C23.4052 11.9561 23.4855 11.2822 23.8296 10.6576Z" fill="currentColor"/>
<path fill-rule="evenodd" clip-rule="evenodd" d="M36.2031 0H0.517578V24H36.2031L45.9355 12L36.2031 0ZM16.2954 10.2462C16.3496 10.2895 16.404 10.3331 16.4592 10.3767C16.4959 10.3547 16.5185 10.3247 16.5398 10.2963C16.5447 10.2897 16.5497 10.2832 16.5546 10.2769C16.748 10.0502 16.9402 9.82229 17.1323 9.59437C17.5179 9.13975 17.9022 8.68512 18.2865 8.22927C18.3631 8.1381 18.3606 8.09621 18.2727 8.02229C18.2036 7.96315 18.1333 7.90525 18.0617 7.84734C17.4513 7.35453 16.7807 6.97013 16.0209 6.74714C15.5135 6.59929 14.9949 6.51798 14.4674 6.48225C13.7792 6.43666 13.0973 6.45884 12.4216 6.61285C10.0556 7.15001 8.28984 9.08184 8.08262 11.5582C8.02736 12.226 8.08011 12.8876 8.25342 13.5369C8.64776 15.0067 9.50425 16.1328 10.8643 16.8744C11.6053 17.2786 12.4078 17.4917 13.2517 17.5582C13.9663 17.6149 14.6734 17.5718 15.3716 17.4165C16.5521 17.1541 17.5957 16.6243 18.5238 15.8666C18.5979 15.8063 18.6281 15.7459 18.6281 15.6498C18.625 14.4711 18.6252 13.2917 18.6255 12.1127L18.6256 11.228C18.6256 11.2127 18.6245 11.1972 18.6234 11.1816C18.621 11.1472 18.6185 11.1128 18.6281 11.0814C18.6391 11.045 18.6191 11.024 18.5997 11.0036C18.5837 10.9868 18.568 10.9704 18.5703 10.9459C18.5753 10.9052 18.5477 10.8991 18.515 10.8991H13.5305C13.521 10.8991 13.5112 10.8994 13.5015 10.8996C13.4818 10.9002 13.4619 10.9007 13.4426 10.8991C13.3924 10.8942 13.3761 10.9188 13.3798 10.9644C13.3815 10.9833 13.3809 11.0028 13.3804 11.0221C13.3801 11.0317 13.3798 11.0412 13.3798 11.0506C13.3798 11.3094 13.3797 11.5681 13.3796 11.8268C13.3793 12.3443 13.379 12.8617 13.3798 13.3792C13.3798 13.4006 13.3794 13.419 13.3791 13.4349C13.3781 13.4822 13.3775 13.5065 13.3896 13.5189C13.4024 13.532 13.4293 13.5317 13.4847 13.5311C13.4986 13.5309 13.5142 13.5307 13.5318 13.5307H15.5035C15.5209 13.5307 15.5363 13.5305 15.5499 13.5304C15.6046 13.5297 15.6311 13.5294 15.6438 13.5423C15.6558 13.5545 15.6554 13.5785 15.6546 13.6252C15.6543 13.6417 15.654 13.6609 15.6542 13.6835C15.655 13.796 15.6547 13.9079 15.6545 14.02C15.6543 14.0761 15.6542 14.1323 15.6542 14.1886V14.1927C15.6542 14.424 15.6542 14.4258 15.442 14.5262C14.8203 14.8194 14.1635 14.9032 13.4853 14.8194C12.7318 14.727 12.129 14.3759 11.6869 13.7685C11.3993 13.373 11.2424 12.927 11.1833 12.4465C11.1092 11.833 11.1846 11.2428 11.4672 10.6859C11.8075 10.017 12.3224 9.53646 13.0621 9.31593C13.5808 9.16069 14.1057 9.20135 14.6256 9.31346C15.0966 9.41449 15.5073 9.64118 15.8853 9.92578C16.0238 10.0291 16.1586 10.1368 16.2954 10.2462ZM30.2446 8.01115C29.0829 6.96885 27.6989 6.47234 26.2685 6.46125C25.6079 6.46248 25.1144 6.51546 24.5907 6.64975C23.0711 7.04031 21.8818 7.87809 21.0919 9.21608C20.2806 10.5886 20.1161 12.0608 20.5694 13.575C21.0768 15.2678 22.1581 16.4998 23.8309 17.1861C25.1156 17.7122 26.4468 17.7824 27.7894 17.435C29.3491 17.0321 30.5447 16.1413 31.3284 14.7516C31.9889 13.5799 32.166 12.3233 31.9199 11.0111C31.6988 9.83209 31.1463 8.82183 30.2446 8.01115Z" fill="currentColor"/>
</svg>
