<svg width="120" height="15" viewBox="0 0 120 15" fill="none" xmlns="http://www.w3.org/2000/svg">
<path d="M1.31381 13.7835C1.14461 13.7835 0.940568 13.7735 0.701694 13.7536C0.472772 13.7337 0.238875 13.6988 0 13.6491V12.1259C0.189109 12.1657 0.368265 12.1956 0.537468 12.2155C0.716624 12.2354 0.86592 12.2453 0.985357 12.2453C1.4432 12.2453 1.77165 12.1109 1.97071 11.8421C2.17973 11.5733 2.28424 11.1452 2.28424 10.5579V0.462934H4.21016V10.5579C4.21016 11.2747 4.11063 11.872 3.91157 12.3499C3.71251 12.8277 3.39899 13.1861 2.971 13.4251C2.55297 13.664 2.00057 13.7835 1.31381 13.7835Z" fill="#0838C1"/>
<path d="M9.11164 11.1403C8.186 11.1403 7.49426 10.8864 7.03642 10.3787C6.57857 9.87093 6.34965 9.0944 6.34965 8.04907V3.4496H8.21586V8.03413C8.21586 8.59165 8.33032 9.0048 8.55924 9.2736C8.78816 9.53244 9.13652 9.66187 9.60432 9.66187C10.1318 9.66187 10.5598 9.48267 10.8883 9.12427C11.2267 8.76587 11.3959 8.29298 11.3959 7.7056V3.4496H13.2621V10.9909H11.4407V9.4528H11.6497C11.4307 9.9904 11.0973 10.4085 10.6494 10.7072C10.2115 10.9959 9.69887 11.1403 9.11164 11.1403Z" fill="#0838C1"/>
<path d="M15.2881 10.9909V0H17.1543V10.9909H15.2881Z" fill="currentColor"/>
<path d="M19.1809 10.9909V3.4496H21.0471V10.9909H19.1809ZM19.0764 2.03093V0.209067H21.1516V2.03093H19.0764Z" fill="currentColor"/>
<path d="M25.985 11.1403C25.328 11.1403 24.7508 10.986 24.2531 10.6773C23.7555 10.3588 23.3673 9.90578 23.0886 9.3184C22.8099 8.73102 22.6706 8.02916 22.6706 7.2128C22.6706 6.39645 22.8099 5.69956 23.0886 5.12213C23.3673 4.53476 23.7555 4.08676 24.2531 3.77813C24.7508 3.45956 25.328 3.30027 25.985 3.30027C26.622 3.30027 27.1793 3.45956 27.6571 3.77813C28.1448 4.08676 28.4683 4.50489 28.6275 5.03253H28.4633L28.6275 3.4496H30.4191C30.3892 3.75822 30.3593 4.07182 30.3295 4.3904C30.3096 4.70898 30.2996 5.02258 30.2996 5.3312V10.9909H28.4483L28.4334 9.43787H28.6126C28.4533 9.95556 28.1298 10.3687 27.6421 10.6773C27.1544 10.986 26.602 11.1403 25.985 11.1403ZM26.5075 9.70667C27.0947 9.70667 27.5675 9.50258 27.9258 9.0944C28.2841 8.67627 28.4633 8.04907 28.4633 7.2128C28.4633 6.37653 28.2841 5.75431 27.9258 5.34613C27.5675 4.93796 27.0947 4.73387 26.5075 4.73387C25.9203 4.73387 25.4475 4.93796 25.0892 5.34613C24.7309 5.75431 24.5517 6.37653 24.5517 7.2128C24.5517 8.04907 24.7259 8.67627 25.0742 9.0944C25.4326 9.50258 25.9103 9.70667 26.5075 9.70667Z" fill="currentColor"/>
<path d="M40.2507 11.1403C39.4047 11.1403 38.6234 11.0357 37.9067 10.8267C37.2001 10.6076 36.5929 10.309 36.0853 9.93067L36.6825 8.4224C37.0209 8.66133 37.3743 8.86542 37.7425 9.03467C38.1108 9.19396 38.5039 9.3184 38.922 9.408C39.34 9.48765 39.7829 9.52747 40.2507 9.52747C41.037 9.52747 41.6043 9.39804 41.9527 9.1392C42.301 8.88036 42.4752 8.54187 42.4752 8.12373C42.4752 7.75538 42.3558 7.47662 42.1169 7.28747C41.878 7.08836 41.4501 6.92409 40.833 6.79467L39.1459 6.4512C38.1805 6.25209 37.4589 5.91858 36.9811 5.45067C36.5034 4.98276 36.2645 4.35556 36.2645 3.56907C36.2645 2.912 36.4387 2.33956 36.787 1.85173C37.1354 1.36391 37.6231 0.985601 38.2501 0.716801C38.8772 0.448 39.6087 0.3136 40.4448 0.3136C41.1913 0.3136 41.883 0.423112 42.52 0.642134C43.157 0.8512 43.6895 1.15484 44.1175 1.55307L43.5203 2.98667C43.0923 2.62827 42.6245 2.36444 42.1169 2.1952C41.6093 2.016 41.042 1.9264 40.4149 1.9264C39.7083 1.9264 39.1559 2.06578 38.7577 2.34453C38.3696 2.61333 38.1755 2.98667 38.1755 3.46453C38.1755 3.83289 38.2949 4.12658 38.5338 4.3456C38.7826 4.56462 39.2007 4.73387 39.7879 4.85333L41.46 5.18187C42.4553 5.38098 43.1918 5.70951 43.6696 6.16747C44.1473 6.61547 44.3862 7.22276 44.3862 7.98933C44.3862 8.61653 44.217 9.16907 43.8786 9.64693C43.5402 10.1148 43.0625 10.4832 42.4454 10.752C41.8283 11.0108 41.0967 11.1403 40.2507 11.1403Z" fill="currentColor"/>
<path d="M49.2033 11.1403C48.3075 11.1403 47.6307 10.9063 47.1728 10.4384C46.715 9.97049 46.4861 9.26862 46.4861 8.3328V4.85333H45.0379V3.4496H46.4861V1.5232L48.3523 1.04533V3.4496H50.3678V4.85333H48.3523V8.21333C48.3523 8.73102 48.4518 9.0944 48.6509 9.30347C48.8499 9.51253 49.1236 9.61707 49.472 9.61707C49.6611 9.61707 49.8203 9.60213 49.9497 9.57227C50.0891 9.5424 50.2234 9.50258 50.3528 9.4528V10.9312C50.1836 11.0009 49.9945 11.0507 49.7855 11.0805C49.5864 11.1204 49.3924 11.1403 49.2033 11.1403Z" fill="currentColor"/>
<path d="M55.2053 11.1403C53.9413 11.1403 52.9509 10.7918 52.2343 10.0949C51.5177 9.39805 51.1594 8.44231 51.1594 7.22773C51.1594 6.44125 51.3137 5.75431 51.6222 5.16693C51.9308 4.57956 52.3587 4.1216 52.9062 3.79307C53.4635 3.46453 54.1105 3.30027 54.847 3.30027C55.5736 3.30027 56.1807 3.45458 56.6684 3.7632C57.1561 4.07182 57.5244 4.50489 57.7732 5.0624C58.032 5.61991 58.1614 6.272 58.1614 7.01867V7.51147H52.6673V6.52587H56.8327L56.5789 6.73493C56.5789 6.03804 56.4296 5.50542 56.131 5.13707C55.8423 4.76871 55.4193 4.58453 54.8619 4.58453C54.2448 4.58453 53.7671 4.80356 53.4287 5.2416C53.1002 5.67965 52.936 6.29191 52.936 7.0784V7.27253C52.936 8.08889 53.1351 8.70116 53.5332 9.10933C53.9413 9.50756 54.5136 9.70667 55.2501 9.70667C55.6781 9.70667 56.0762 9.65191 56.4445 9.5424C56.8227 9.42293 57.181 9.23378 57.5194 8.97493L58.0718 10.2293C57.7135 10.518 57.2855 10.742 56.7879 10.9013C56.2902 11.0606 55.7627 11.1403 55.2053 11.1403Z" fill="currentColor"/>
<path d="M59.7417 14.2165V5.3312C59.7417 5.02258 59.7318 4.70898 59.7119 4.3904C59.692 4.07182 59.6621 3.75822 59.6223 3.4496H61.4288L61.593 5.03253H61.4288C61.5781 4.50489 61.8916 4.08676 62.3693 3.77813C62.857 3.45956 63.4194 3.30027 64.0564 3.30027C64.7233 3.30027 65.3055 3.45956 65.8032 3.77813C66.3008 4.08676 66.689 4.53476 66.9677 5.12213C67.2464 5.69956 67.3857 6.39645 67.3857 7.2128C67.3857 8.02916 67.2464 8.73102 66.9677 9.3184C66.689 9.90578 66.3008 10.3588 65.8032 10.6773C65.3055 10.986 64.7233 11.1403 64.0564 11.1403C63.4293 11.1403 62.8769 10.986 62.3992 10.6773C61.9215 10.3687 61.603 9.95556 61.4437 9.43787H61.6079V14.2165H59.7417ZM63.5339 9.70667C64.131 9.70667 64.6088 9.50258 64.9671 9.0944C65.3254 8.67627 65.5046 8.04907 65.5046 7.2128C65.5046 6.37653 65.3254 5.75431 64.9671 5.34613C64.6088 4.93796 64.131 4.73387 63.5339 4.73387C62.9466 4.73387 62.4739 4.93796 62.1155 5.34613C61.7572 5.75431 61.5781 6.37653 61.5781 7.2128C61.5781 8.04907 61.7572 8.67627 62.1155 9.0944C62.4739 9.50258 62.9466 9.70667 63.5339 9.70667Z" fill="currentColor"/>
<path d="M71.9111 11.1403C71.2542 11.1403 70.677 10.986 70.1793 10.6773C69.6816 10.3588 69.2935 9.90578 69.0148 9.3184C68.7361 8.73102 68.5968 8.02916 68.5968 7.2128C68.5968 6.39645 68.7361 5.69956 69.0148 5.12213C69.2935 4.53476 69.6816 4.08676 70.1793 3.77813C70.677 3.45956 71.2542 3.30027 71.9111 3.30027C72.5481 3.30027 73.1055 3.45956 73.5833 3.77813C74.071 4.08676 74.3944 4.50489 74.5537 5.03253H74.3895L74.5537 3.4496H76.3453C76.3154 3.75822 76.2855 4.07182 76.2557 4.3904C76.2358 4.70898 76.2258 5.02258 76.2258 5.3312V10.9909H74.3745L74.3596 9.43787H74.5388C74.3795 9.95556 74.056 10.3687 73.5683 10.6773C73.0806 10.986 72.5282 11.1403 71.9111 11.1403ZM72.4337 9.70667C73.0209 9.70667 73.4937 9.50258 73.852 9.0944C74.2103 8.67627 74.3895 8.04907 74.3895 7.2128C74.3895 6.37653 74.2103 5.75431 73.852 5.34613C73.4937 4.93796 73.0209 4.73387 72.4337 4.73387C71.8464 4.73387 71.3737 4.93796 71.0154 5.34613C70.6571 5.75431 70.4779 6.37653 70.4779 7.2128C70.4779 8.04907 70.6521 8.67627 71.0004 9.0944C71.3587 9.50258 71.8365 9.70667 72.4337 9.70667Z" fill="currentColor"/>
<path d="M78.258 10.9909V5.3312C78.258 5.02258 78.248 4.70898 78.2281 4.3904C78.2082 4.07182 78.1784 3.75822 78.1386 3.4496H79.945L80.0943 4.94293H79.9152C80.1541 4.41529 80.5074 4.01209 80.9752 3.73333C81.443 3.44462 81.9854 3.30027 82.6025 3.30027C83.4883 3.30027 84.1552 3.54916 84.6031 4.04693C85.051 4.54471 85.2749 5.32125 85.2749 6.37653V10.9909H83.4087V6.46613C83.4087 5.85884 83.2893 5.42578 83.0504 5.16693C82.8215 4.89813 82.4731 4.76373 82.0053 4.76373C81.4281 4.76373 80.9702 4.94293 80.6318 5.30133C80.2934 5.65973 80.1242 6.1376 80.1242 6.73493V10.9909H78.258Z" fill="currentColor"/>
<path d="M90.8965 11.1403C89.6325 11.1403 88.6422 10.7918 87.9255 10.0949C87.2089 9.39805 86.8506 8.44231 86.8506 7.22773C86.8506 6.44125 87.0049 5.75431 87.3134 5.16693C87.622 4.57956 88.0499 4.1216 88.5974 3.79307C89.1547 3.46453 89.8017 3.30027 90.5382 3.30027C91.2648 3.30027 91.8719 3.45458 92.3596 3.7632C92.8473 4.07182 93.2156 4.50489 93.4644 5.0624C93.7232 5.61991 93.8526 6.272 93.8526 7.01867V7.51147H88.3585V6.52587H92.5239L92.2701 6.73493C92.2701 6.03804 92.1208 5.50542 91.8222 5.13707C91.5335 4.76871 91.1105 4.58453 90.5531 4.58453C89.9361 4.58453 89.4583 4.80356 89.1199 5.2416C88.7915 5.67965 88.6272 6.29191 88.6272 7.0784V7.27253C88.6272 8.08889 88.8263 8.70116 89.2244 9.10933C89.6325 9.50756 90.2048 9.70667 90.9413 9.70667C91.3693 9.70667 91.7674 9.65191 92.1357 9.5424C92.5139 9.42293 92.8722 9.23378 93.2106 8.97493L93.763 10.2293C93.4047 10.518 92.9767 10.742 92.4791 10.9013C91.9814 11.0606 91.4539 11.1403 90.8965 11.1403Z" fill="currentColor"/>
<path d="M95.4329 10.9909V5.3312C95.4329 5.02258 95.423 4.70898 95.4031 4.3904C95.3832 4.07182 95.3533 3.75822 95.3135 3.4496H97.12L97.2693 4.94293H97.0901C97.329 4.41529 97.6823 4.01209 98.1501 3.73333C98.6179 3.44462 99.1604 3.30027 99.7775 3.30027C100.663 3.30027 101.33 3.54916 101.778 4.04693C102.226 4.54471 102.45 5.32125 102.45 6.37653V10.9909H100.584V6.46613C100.584 5.85884 100.464 5.42578 100.225 5.16693C99.9964 4.89813 99.6481 4.76373 99.1803 4.76373C98.603 4.76373 98.1452 4.94293 97.8067 5.30133C97.4683 5.65973 97.2991 6.1376 97.2991 6.73493V10.9909H95.4329Z" fill="currentColor"/>
<path d="M104.429 10.9909V0H106.295V6.66027H106.325L109.385 3.4496H111.64L107.833 7.4368L107.848 6.69013L111.908 10.9909H109.594L106.325 7.616H106.295V10.9909H104.429Z" fill="currentColor"/>
<path d="M115.924 11.1403C115.148 11.1403 114.476 10.981 113.909 10.6624C113.342 10.3438 112.899 9.89085 112.58 9.30347C112.272 8.71609 112.117 8.0192 112.117 7.2128C112.117 6.4064 112.272 5.71449 112.58 5.13707C112.899 4.54969 113.342 4.09671 113.909 3.77813C114.476 3.45956 115.148 3.30027 115.924 3.30027C116.701 3.30027 117.373 3.45956 117.94 3.77813C118.517 4.09671 118.96 4.54969 119.269 5.13707C119.587 5.71449 119.746 6.4064 119.746 7.2128C119.746 8.0192 119.587 8.71609 119.269 9.30347C118.96 9.89085 118.517 10.3438 117.94 10.6624C117.373 10.981 116.701 11.1403 115.924 11.1403ZM115.924 9.70667C116.512 9.70667 116.979 9.50258 117.328 9.0944C117.676 8.67627 117.85 8.04907 117.85 7.2128C117.85 6.37653 117.676 5.75431 117.328 5.34613C116.979 4.93796 116.512 4.73387 115.924 4.73387C115.337 4.73387 114.869 4.93796 114.521 5.34613C114.173 5.75431 113.998 6.37653 113.998 7.2128C113.998 8.04907 114.173 8.67627 114.521 9.0944C114.869 9.50258 115.337 9.70667 115.924 9.70667Z" fill="currentColor"/>
</svg>
