<svg width="24" height="24" viewBox="0 0 24 24" fill="none" xmlns="http://www.w3.org/2000/svg">
<path fill-rule="evenodd" clip-rule="evenodd" d="M14.789 11.2499C14.873 10.4759 15.097 9.85788 15.487 9.30988C16.01 8.57888 16.887 7.89588 18.337 7.16988C18.43 7.12898 18.5137 7.06961 18.5831 6.99537C18.6525 6.92113 18.706 6.83356 18.7406 6.73799C18.7751 6.64241 18.7898 6.54082 18.7838 6.43938C18.7779 6.33794 18.7514 6.23877 18.7059 6.14789C18.6605 6.057 18.5971 5.9763 18.5195 5.91067C18.4419 5.84505 18.3518 5.79587 18.2546 5.76613C18.1575 5.7364 18.0553 5.72671 17.9542 5.73767C17.8532 5.74863 17.7555 5.78 17.667 5.82988C16.117 6.60388 14.994 7.42088 14.267 8.43988C13.526 9.47588 13.252 10.6429 13.252 11.9999L13.252 16.4999C13.252 16.964 13.4363 17.4091 13.7645 17.7373C14.0927 18.0655 14.5378 18.2499 15.002 18.2499L19.002 18.2499C19.4661 18.2499 19.9112 18.0655 20.2394 17.7373C20.5676 17.4091 20.752 16.964 20.752 16.4999L20.752 12.9999C20.752 12.0339 19.968 11.2499 19.002 11.2499L14.789 11.2499ZM4.78895 11.2499C4.87295 10.4759 5.09695 9.85788 5.48695 9.30988C6.00995 8.57888 6.88695 7.89588 8.33695 7.16988C8.42997 7.12898 8.51372 7.06961 8.58309 6.99537C8.65247 6.92113 8.70604 6.83356 8.74055 6.73799C8.77506 6.64241 8.78978 6.54082 8.78383 6.43938C8.77788 6.33794 8.75138 6.23877 8.70594 6.14788C8.6605 6.057 8.59706 5.97629 8.51948 5.91067C8.44189 5.84505 8.35179 5.79587 8.25462 5.76613C8.15746 5.73639 8.05526 5.72671 7.95424 5.73767C7.85322 5.74863 7.75548 5.78 7.66695 5.82988C6.11695 6.60388 4.99395 7.42088 4.26695 8.43988C3.52595 9.47588 3.25195 10.6429 3.25195 11.9999L3.25195 16.4999C3.25195 16.964 3.43633 17.4091 3.76451 17.7373C4.0927 18.0655 4.53782 18.2499 5.00195 18.2499L9.00195 18.2499C9.46608 18.2499 9.9112 18.0655 10.2394 17.7373C10.5676 17.4091 10.752 16.964 10.752 16.4999L10.752 12.9999C10.752 12.0339 9.96795 11.2499 9.00195 11.2499L4.78895 11.2499Z" fill="black"/>
</svg>
