<svg width="162" height="25" viewBox="0 0 162 25" fill="none" xmlns="http://www.w3.org/2000/svg">
<path fill-rule="evenodd" clip-rule="evenodd" d="M7.74491 0C1.41345 0 -1.75973 7.66724 2.71405 12.1559L10.9805 20.4498H1.21203V24.0259H17.4945C23.8286 24.0259 27.0006 16.3531 22.5214 11.8661L14.246 3.57607H24.0416V0H7.74491ZM14.2443 3.57607H7.74491C4.59217 3.57607 3.0121 7.39395 5.23981 9.62907L13.5125 17.9293L10.993 20.4498H17.4945C20.6486 20.4498 22.228 16.6292 19.9977 14.3949L11.7214 6.10401L14.2443 3.57607Z" fill="#AFB4BE"/>
<path d="M46.5759 4.98159C46.4956 4.97954 42.0595 4.97851 41.9783 4.97851C41.146 4.97851 40.3996 5.05786 39.7391 5.21658C39.0785 5.37529 38.5105 5.61336 38.0349 5.93079C37.5593 6.23499 37.196 6.61855 36.945 7.08146C36.694 7.54438 36.5685 8.07342 36.5685 8.6686C36.5685 9.29023 36.6874 9.81927 36.9252 10.2557C37.1762 10.679 37.5065 11.0361 37.916 11.3271C38.3387 11.6048 38.8077 11.8429 39.3229 12.0413C39.8514 12.2397 40.393 12.4116 40.9478 12.5571C41.5027 12.7026 42.0377 12.8481 42.5529 12.9935C43.0814 13.139 43.5503 13.3044 43.9599 13.4895C44.3826 13.6747 44.7129 13.9061 44.9507 14.1839C45.2017 14.4616 45.3272 14.8121 45.3272 15.2354C45.3272 15.5131 45.2677 15.7578 45.1488 15.9694C45.0299 16.181 44.8648 16.3662 44.6534 16.5249C44.4421 16.6704 44.1911 16.7961 43.9004 16.9019C43.623 16.9944 43.3125 17.0672 42.9691 17.1201C42.6256 17.1598 42.2689 17.1796 41.899 17.1796C41.8474 17.1796 37.013 17.1791 36.9623 17.1781V19.0632C37.0133 19.064 41.8477 19.0643 41.899 19.0643C42.9955 19.0643 43.9665 18.9255 44.812 18.6477C45.6707 18.37 46.3444 17.9269 46.8332 17.3185C47.322 16.6969 47.5664 15.8967 47.5664 14.9179C47.5664 14.2963 47.4409 13.7739 47.1899 13.3506C46.9389 12.9142 46.602 12.5505 46.1793 12.2595C45.7697 11.9685 45.3008 11.7238 44.7723 11.5254C44.2571 11.3271 43.7221 11.1551 43.1672 11.0096C42.6256 10.8509 42.0906 10.7054 41.5621 10.5732C41.0469 10.4277 40.5779 10.269 40.1552 10.097C39.7457 9.92508 39.4154 9.72008 39.1644 9.48201C38.9134 9.23071 38.7879 8.91328 38.7879 8.52972C38.7879 8.18584 38.9068 7.89487 39.1446 7.6568C39.3956 7.4055 39.7589 7.21372 40.2345 7.08146C40.71 6.93597 41.2979 6.86323 41.9981 6.86323C42.0734 6.86323 46.5029 6.8645 46.5759 6.86705V4.98159Z" fill="#AFB4BE"/>
<path fill-rule="evenodd" clip-rule="evenodd" d="M57.1959 19.0643C55.7956 19.0643 54.5802 18.8064 53.5497 18.2906C52.5325 17.7748 51.7465 16.9945 51.1916 15.9496C50.65 14.9047 50.3792 13.5953 50.3792 12.0214C50.3792 10.4343 50.65 9.1249 51.1916 8.09326C51.7465 7.0484 52.5325 6.26805 53.5497 5.75223C54.5802 5.23641 55.7956 4.97851 57.1959 4.97851C58.6226 4.97851 59.8446 5.23641 60.8618 5.75223C61.8791 6.26805 62.6585 7.0484 63.2001 8.09326C63.755 9.1249 64.0324 10.4343 64.0324 12.0214C64.0324 13.5953 63.755 14.9047 63.2001 15.9496C62.6585 16.9945 61.8791 17.7748 60.8618 18.2906C59.8446 18.8064 58.6226 19.0643 57.1959 19.0643ZM57.1959 17.1796C57.9225 17.1796 58.5632 17.0804 59.118 16.882C59.6861 16.6836 60.1617 16.3794 60.5448 15.9694C60.9411 15.5594 61.2383 15.0436 61.4365 14.422C61.6479 13.8003 61.7536 13.0795 61.7536 12.2595V11.823C61.7536 10.9766 61.6479 10.2425 61.4365 9.62088C61.2383 8.99925 60.9411 8.48343 60.5448 8.07342C60.1617 7.66341 59.6861 7.35921 59.118 7.16082C58.5632 6.96243 57.9225 6.86323 57.1959 6.86323C56.4825 6.86323 55.8418 6.96243 55.2737 7.16082C54.7189 7.35921 54.2433 7.66341 53.847 8.07342C53.4639 8.48343 53.1732 8.99925 52.9751 9.62088C52.7769 10.2425 52.6778 10.9766 52.6778 11.823V12.2595C52.6778 13.0795 52.7769 13.8003 52.9751 14.422C53.1732 15.0436 53.4639 15.5594 53.847 15.9694C54.2433 16.3794 54.7189 16.6836 55.2737 16.882C55.8418 17.0804 56.4825 17.1796 57.1959 17.1796Z" fill="#AFB4BE"/>
<path d="M67.4831 7.20183V18.8262H69.7025V13.0332H76.4795V11.1484H69.7025V7.9152C69.7025 7.47662 70.0576 7.12108 70.4957 7.12108H77.1929V5.21652H69.466C68.3709 5.21652 67.4831 6.10537 67.4831 7.20183Z" fill="#AFB4BE"/>
<path d="M83.8183 18.8262V7.12108H79.32V5.21652H90.5755V7.12108H86.0377V18.8262H83.8183Z" fill="#AFB4BE"/>
<path fill-rule="evenodd" clip-rule="evenodd" d="M93.5145 5.21652V18.8262H95.7339V13.5688H100.45L103.026 18.8262H105.444L102.61 13.1919C103.363 12.8745 103.944 12.3785 104.354 11.7039C104.763 11.0294 104.968 10.2358 104.968 9.32323C104.968 8.50321 104.81 7.789 104.493 7.1806C104.175 6.55897 103.7 6.07622 103.066 5.73234C102.432 5.38846 101.632 5.21652 100.668 5.21652H93.5145ZM100.49 11.7039H95.7339V7.12108H100.49C100.978 7.12108 101.388 7.20705 101.718 7.37899C102.049 7.55093 102.3 7.80223 102.471 8.13288C102.643 8.45031 102.729 8.84048 102.729 9.30339C102.729 10.0573 102.531 10.6458 102.134 11.0691C101.751 11.4923 101.203 11.7039 100.49 11.7039Z" fill="#AFB4BE"/>
<path d="M112.184 18.8262V13.2316L106.893 5.21652H109.43L113.314 11.2476H113.413L117.257 5.21652H119.695L114.404 13.2316V18.8262H112.184Z" fill="#AFB4BE"/>
<path d="M121.399 17.7351V18.8262H132.635V16.9216H124.649L132.457 6.30767V5.21652H121.915V7.12108H129.167L121.399 17.7351Z" fill="#AFB4BE"/>
<path d="M137.843 18.8262C136.748 18.8262 135.86 17.9374 135.86 16.8409V7.20183C135.86 6.10537 136.748 5.21652 137.843 5.21652H146.402V7.12108H138.873C138.435 7.12108 138.08 7.47662 138.08 7.9152V10.9104H145.531V12.8149H138.08V16.1275C138.08 16.5661 138.435 16.9216 138.873 16.9216H146.521V18.8262H137.843Z" fill="#AFB4BE"/>
<path d="M150.105 18.8262V5.21652H152.245L159.2 14.8782H159.299V5.21652H161.439V18.8262H159.378L152.344 9.02565H152.245V18.8262H150.105Z" fill="#AFB4BE"/>
</svg>
