<svg width="64" height="64" viewBox="0 0 64 64" fill="none" xmlns="http://www.w3.org/2000/svg">
<path fill-rule="evenodd" clip-rule="evenodd" d="M57.2651 9.1176C58.1206 9.81628 58.2477 11.0762 57.5491 11.9317L31.4157 43.9317C31.0505 44.3789 30.5098 44.6465 29.9328 44.6656C29.3557 44.6847 28.7985 44.4534 28.4046 44.0313L17.2046 32.0313C16.4509 31.2238 16.4945 29.9582 17.302 29.2046C18.1095 28.4509 19.3751 28.4945 20.1288 29.302L29.7662 39.6278L54.4509 9.4016C55.1496 8.54607 56.4095 8.41892 57.2651 9.1176Z" fill="#0838C1"/>
<path d="M60 32C60 47.464 47.464 60 32 60C16.536 60 4 47.464 4 32C4 16.536 16.536 4 32 4C33.8638 4 35.6851 4.1821 37.447 4.52949C38.7345 4.78334 40 3.8412 40 2.5289C40 1.63379 39.3953 0.845862 38.5187 0.664456C36.4141 0.228876 34.2338 0 32 0C14.3269 0 0 14.3269 0 32C0 49.6731 14.3269 64 32 64C49.6731 64 64 49.6731 64 32C64 31.7196 63.9964 31.44 63.9892 31.1613C63.9626 30.127 63.0942 29.3333 62.0596 29.3333C60.8876 29.3333 59.9759 30.3426 59.9959 31.5143C59.9986 31.6759 60 31.8378 60 32Z" fill="#0838C1"/>
</svg>
